<?xml version="1.0" standalone="no"?>

<!DOCTYPE svg PUBLIC "-//W3C//DTD SVG 20010904//EN"
 "http://www.w3.org/TR/2001/REC-SVG-20010904/DTD/svg10.dtd">
<svg version="1.0" xmlns="http://www.w3.org/2000/svg"
 width="1069.000000pt" height="1069.000000pt" viewBox="0 0 1069.000000 1069.000000"
 preserveAspectRatio="xMidYMid meet">
<metadata>
Created by Roxanne with potrace 1.14, written by Peter Selinger 2001-2017
</metadata>

<g transform="translate(0.000000,1069.000000) scale(0.100000,-0.100000)"
fill="#0a0" stroke="none">
<path d="M6185 10444 c-246 -86 -533 -279 -702 -473 -274 -313 -421 -725 -400
-1122 l5 -106 -131 -7 c-291 -15 -796 -71 -1176 -132 -198 -31 -225 -38 -355
-90 -247 -99 -498 -234 -681 -368 -49 -36 -126 -84 -170 -107 -499 -259 -913
-564 -1281 -941 -500 -513 -834 -1097 -988 -1728 -69 -283 -96 -510 -96 -805
1 -550 110 -1013 360 -1520 101 -205 204 -378 325 -545 765 -1057 2066 -1786
3560 -1994 322 -45 419 -51 875 -51 467 0 557 6 910 56 1660 236 3072 1125
3772 2374 185 329 330 736 392 1100 45 259 60 642 35 891 -101 1035 -663 1981
-1599 2690 -209 158 -524 355 -744 466 -56 28 -121 70 -150 97 -181 167 -431
314 -666 391 -244 80 -965 190 -1405 215 -60 3 -130 8 -154 11 l-44 6 7 98
c13 205 102 454 228 638 147 214 409 409 661 492 37 12 67 25 67 29 0 18 -352
456 -368 458 -9 1 -48 -9 -87 -23z"/>
</g>

<g transform="translate(0.000000,1069.000000) scale(0.100000,-0.100000)"
fill="#a00" stroke="none">
<path d="M8037 8033 c17 -21 41 -47 53 -58 88 -78 253 -323 339 -500 127 -262
193 -504 225 -828 l6 -59 -27 20 c-16 11 -39 32 -53 47 -40 43 -187 157 -300
232 -407 271 -983 499 -1471 582 -133 23 -290 41 -351 41 l-43 0 50 -42 c338
-285 608 -694 746 -1133 58 -183 103 -414 115 -588 l7 -102 -34 30 c-900 788
-1248 1022 -1868 1255 l-114 43 -101 -26 c-300 -75 -642 -288 -1161 -722 -99
-83 -251 -210 -338 -283 -157 -132 -320 -257 -366 -281 l-24 -13 7 58 c13 107
56 310 96 457 133 486 360 925 651 1261 l100 116 -53 -5 c-29 -3 -129 -12
-223 -21 -812 -74 -1511 -252 -1901 -483 l-51 -30 13 62 c73 348 286 676 624
960 l45 38 -55 -27 c-153 -75 -429 -241 -608 -366 -710 -497 -1241 -1148
-1525 -1868 -246 -626 -300 -1322 -153 -1975 250 -1105 1059 -2085 2231 -2702
675 -355 1392 -564 2235 -650 246 -25 890 -25 1140 0 1358 135 2519 641 3383
1477 513 495 894 1131 1057 1764 275 1068 21 2176 -704 3076 -395 490 -964
948 -1540 1237 l-89 45 30 -39z"/>
</g>

<text x="270" y="100" dx="10" dy="10">calories</text>
<text x="170" y="175" dx="10" dy="10">country of origin</text>
<text x="100" y="250" dx="10" dy="10">harvest date</text>
<text x="700" y="100" dx="10" dy="10">colour</text>
<text x="800" y="150" dx="10" dy="10">scientific name</text>
<text x="900" y="200" dx="10" dy="10">commercial name</text>

<style type="text/css">

  text {
    font-family:arial; font-size:36px; text-anchor:middle; fill:black;
  }

</style>

</svg>
